PathFileType	4	(X/Y/Z)	s02c0101.trc
DataRate	CameraRate	NumFrames	NumMarkers	Units	OrigDataRate	OrigDataStartFrame	OrigNumFrames
200	200	5	51	mm	200	500	2000
Frame#	Time	racr			lacr			c7			jug			rlel			rdr			llel			ldr			s2			lic			ric			lasi			rasi			rpsi			lpsi			rgt			lgt			rth1			rth2			rth3			rth4			rlfc			rmfc			rsh1			rsh2			rsh3			rsh4			rlmal			rmmal			rtoe			rmt5			rmt1			lth1			lth2			lth4			lth3			llfc			lmfc			lsh1			lsh2			lsh3			lsh4			llmal			lmmal			lcal			ltoe			lmt1			lmt5			SBIKE			LBIKE			RBIKE			
		X1	Y1	Z1	X2	Y2	Z2	X3	Y3	Z3	X4	Y4	Z4	X5	Y5	Z5	X6	Y6	Z6	X7	Y7	Z7	X8	Y8	Z8	X9	Y9	Z9	X10	Y10	Z10	X11	Y11	Z11	X12	Y12	Z12	X13	Y13	Z13	X14	Y14	Z14	X15	Y15	Z15	X16	Y16	Z16	X17	Y17	Z17	X18	Y18	Z18	X19	Y19	Z19	X20	Y20	Z20	X21	Y21	Z21	X22	Y22	Z22	X23	Y23	Z23	X24	Y24	Z24	X25	Y25	Z25	X26	Y26	Z26	X27	Y27	Z27	X28	Y28	Z28	X29	Y29	Z29	X30	Y30	Z30	X31	Y31	Z31	X32	Y32	Z32	X33	Y33	Z33	X34	Y34	Z34	X35	Y35	Z35	X36	Y36	Z36	X37	Y37	Z37	X38	Y38	Z38	X39	Y39	Z39	X40	Y40	Z40	X41	Y41	Z41	X42	Y42	Z42	X43	Y43	Z43	X44	Y44	Z44	X45	Y45	Z45	X46	Y46	Z46	X47	Y47	Z47	X48	Y48	Z48	X49	Y49	Z49	X50	Y50	Z50	X51	Y51	Z51	
500	2.5000	531.136071	1267.083810	-134.505392	514.248760	1276.052675	-478.623554	513.688296	1320.553753	-306.805532	470.339325	1183.066838	-312.213863	568.020234	999.239009	-75.104655	725.349625	850.766422	-136.703540	511.951026	999.865842	-564.001682	690.119533	852.149878	-510.767599	-1.801293	1117.746274	-298.440310	118.441911	1139.623881	-448.757080	141.915319	1114.147512	-166.205706	160.364800	1108.539832	-427.349688	190.752702	1086.599544	-195.311865	28.938653	1159.855868	-250.364038	16.713936	1166.404288	-335.443753	108.537226	1020.300812	-137.823119	76.568809	1064.285962	-493.183734	177.046751	943.988598	-128.970697	233.080255	876.442120	-135.181420	253.933622	795.152560	-115.840995	258.262048	887.601211	-161.537212	290.878378	663.670857	-156.051316	275.544946	644.647068	-260.670104	278.023374	559.168515	-132.875355	287.337658	471.515551	-147.737690	255.668475	391.300990	-140.943552	298.772312	471.934761	-185.614762	229.813123	276.163330	-146.112483	236.678140	290.131927	-225.217731	403.419761	125.961531	-194.128788	301.107351	159.920589	-131.537105	327.345387	162.738935	-238.160286	210.464468	1026.985733	-499.914828	297.151344	1020.182458	-497.478615	307.694315	1050.341220	-477.282883	369.718343	969.198368	-501.539840	461.901857	927.375839	-483.242060	465.780974	899.057072	-370.247248	428.809269	832.502965	-497.616484	390.248077	757.096507	-479.721058	318.903684	702.573752	-487.492371	404.746366	748.245483	-442.752687	231.881899	628.118208	-480.380689	246.773122	622.530273	-399.822089	149.472955	604.058520	-441.360485	411.434188	486.906816	-441.721377	333.587033	515.067461	-395.154368	306.215521	504.620933	-503.669097	-165.204100	858.611840	-314.179008	32.595607	82.881905	-515.223627	32.752055	82.616981	-115.047065	
501	2.5050	530.750556	1266.419268	-135.307838	513.046561	1275.764487	-479.424385	512.896564	1320.126603	-307.235376	469.726393	1182.653573	-312.664263	568.044952	999.056217	-75.103450	725.229298	850.285836	-136.497885	509.579776	998.994685	-563.591977	689.209632	852.705784	-510.841706	-2.776693	1117.201768	-298.220443	117.693256	1138.899953	-448.386839	140.870296	1113.705640	-165.891196	158.954051	1107.542189	-425.098053	189.731407	1086.098810	-194.820168	25.997921	1160.618893	-248.351841	15.860469	1165.945353	-335.191101	107.179708	1019.586397	-137.626154	75.943209	1063.999764	-492.831744	176.066969	943.177166	-128.761560	232.733642	876.170570	-135.034509	254.262784	794.983330	-116.010429	257.860133	887.633054	-161.252558	292.204738	663.759357	-156.879517	276.934011	645.067202	-261.600878	277.782667	559.559556	-133.655829	284.948126	471.590484	-148.769042	251.761088	392.050951	-141.891775	296.502715	471.792368	-186.614809	223.123104	277.471079	-146.742530	230.630184	291.290822	-226.038969	395.720353	125.746162	-193.669431	293.281699	160.493692	-131.773021	320.073132	162.823826	-238.358157	211.028713	1028.301762	-503.704396	296.261420	1019.917680	-497.389376	306.812792	1050.197078	-477.312549	368.795933	968.943389	-501.290390	460.877209	927.488262	-483.554071	465.560496	899.476710	-370.318164	429.279183	832.253754	-497.674485	391.834459	756.303486	-479.818256	321.067787	700.898804	-487.462447	406.382680	747.635118	-442.688853	234.929899	625.303954	-479.952198	249.815778	619.863240	-399.573429	152.682406	598.785707	-441.366813	418.362206	489.851816	-441.865933	339.483965	515.541534	-395.472464	312.505409	504.189004	-504.002971	-165.231530	858.643024	-314.105922	32.586732	82.871177	-515.219619	32.737704	82.582058	-115.045521	
502	2.5100	530.322079	1265.681981	-136.108865	511.742055	1275.454156	-480.067724	512.103223	1319.611203	-307.746311	469.047062	1182.165705	-313.182590	568.006728	998.851354	-74.951651	725.047796	849.794386	-136.505338	507.457549	998.082996	-563.010736	688.506518	853.153262	-511.067348	-3.797796	1116.561506	-298.007713	116.603920	1138.204960	-447.671601	139.848882	1113.216123	-165.450428	158.091544	1107.131285	-424.575393	189.603582	1085.772110	-193.415288	24.865654	1160.069564	-248.025624	14.879752	1165.379629	-334.935534	105.811746	1018.707527	-137.531056	75.274332	1063.501103	-492.077935	175.209942	942.427860	-128.594565	232.629748	876.067152	-134.972182	254.969019	794.965262	-116.314028	257.697892	887.895851	-161.033868	294.076984	664.110550	-157.863867	278.846292	645.825511	-262.575565	277.727076	559.934695	-134.711176	282.859803	471.872394	-149.746257	247.942030	393.157224	-142.800341	294.522210	471.891750	-187.567780	216.279911	279.015382	-147.526711	224.578833	292.835159	-226.941497	387.996948	125.908259	-192.860403	285.402812	161.611666	-132.110127	312.895761	163.252055	-238.498742	210.086746	1027.819191	-503.380067	295.293520	1019.419775	-497.222695	305.909680	1049.825254	-477.328722	367.833098	968.373976	-500.948222	459.943134	926.238075	-483.849694	465.162192	899.162898	-370.330460	429.524063	831.413658	-497.585282	393.088348	754.867605	-479.715658	322.998383	698.682925	-487.330965	407.771508	746.519701	-442.656084	237.872849	621.967112	-479.614616	252.647587	616.569299	-399.392469	156.069175	592.818413	-441.277805	425.160101	492.490225	-441.938061	345.672902	515.952207	-395.230918	318.753993	503.349401	-504.265857	-165.316798	858.515934	-314.493285	32.570249	82.857991	-515.228158	32.749758	82.563792	-115.032273	
503	2.5150	529.862002	1264.867180	-136.795154	510.428001	1274.960556	-480.831383	511.230025	1319.048718	-308.252648	468.314706	1181.457578	-313.641381	567.954443	998.543528	-74.709015	724.808798	849.326920	-136.546032	505.508948	997.154269	-562.315973	687.939958	853.571942	-510.914433	-4.751189	1115.794251	-297.701943	115.951804	1137.643320	-447.572400	138.831740	1112.656170	-165.091852	157.308703	1106.724361	-424.042878	188.642711	1085.217600	-192.784625	23.799645	1159.457026	-247.679832	13.948244	1164.747647	-334.725554	104.491858	1017.923744	-137.461434	74.627337	1062.951023	-491.459055	174.536030	941.781694	-128.601032	232.800169	876.081413	-135.015957	255.993999	795.127803	-116.747893	257.820972	888.358091	-160.875349	296.292817	664.656814	-158.815044	281.164723	646.736734	-263.662054	277.954030	560.630279	-135.863681	281.039127	472.298337	-150.942181	244.309718	394.370786	-143.899082	292.782574	471.997359	-188.561523	209.659070	281.011373	-148.397217	218.776910	294.762660	-228.018230	380.221142	126.224118	-192.006409	277.483175	162.946239	-132.443074	305.670041	163.890442	-238.787122	209.275450	1027.249979	-503.412619	294.399834	1018.553347	-496.981318	305.042168	1049.010305	-477.296878	366.865827	967.405943	-500.614095	459.057929	925.343494	-483.667822	464.692241	898.240046	-370.314091	429.651525	829.882013	-497.482613	394.223141	752.886187	-479.564347	324.793520	695.886337	-487.193938	408.984031	744.732836	-442.598560	240.832895	618.037938	-479.217572	255.217468	612.715486	-399.375038	159.475000	586.262818	-441.202906	431.757760	494.782883	-442.127385	351.399078	515.466512	-395.522926	325.017431	502.246854	-504.537514	-165.343495	858.508775	-314.479312	32.552340	82.769818	-515.210795	32.433455	82.982650	-115.054314	
504	2.5200	529.240731	1263.960660	-137.520205	509.104793	1274.385078	-481.574572	510.253682	1318.458746	-308.810932	467.432435	1180.945249	-314.248173	567.899421	998.104192	-74.398199	724.608214	848.867592	-136.551304	503.676079	996.037732	-560.892131	687.470812	853.904603	-510.780608	-5.623812	1115.244846	-296.336333	114.834698	1137.774910	-446.916804	137.746332	1112.128360	-164.728155	156.654553	1106.382604	-423.709530	187.261405	1084.606926	-192.631276	22.674172	1158.904287	-247.401721	12.993600	1163.968423	-334.404180	103.320113	1017.093751	-137.326944	74.002264	1062.366109	-490.813230	174.034343	941.055851	-128.881534	233.217012	876.216980	-135.154402	257.389386	795.424653	-117.300622	258.290870	888.982427	-160.710299	298.943403	665.445775	-159.468160	283.867617	647.805251	-264.674021	278.680999	561.314915	-136.863326	279.499421	472.957374	-152.203521	241.089862	395.948404	-145.049482	291.308918	472.469442	-189.757791	203.185245	283.381410	-149.449368	213.312308	296.862111	-229.183244	372.481888	126.848931	-191.267976	269.746570	164.702115	-132.873369	298.628483	164.926818	-239.146043	208.368809	1026.162274	-502.944881	293.521009	1017.339059	-496.800116	304.295619	1047.840660	-477.177690	365.843120	965.960692	-500.466468	458.571770	923.787202	-483.448789	464.100826	896.714590	-370.273709	429.771696	827.739371	-497.318958	395.347264	750.328178	-479.559534	326.564761	692.433927	-487.048726	410.172211	742.355930	-442.436497	243.619139	613.635588	-478.759335	258.361084	608.300948	-398.660014	162.982174	578.957834	-441.201770	438.255971	496.688127	-442.283059	357.272593	514.606237	-395.660298	331.237118	500.659308	-504.810985	-165.432297	857.954992	-315.759768	32.553038	82.737779	-515.204032	32.428735	82.953347	-115.065321	
